Normalized EMG Linear Envelopes
nRows=147
nColumns=4

endheader
time	 med_gas_r	  soleus_r	 tib_ant_r	
2.43734	  0.095686	  0.102028	  0.056451	
2.49984	  0.097884	  0.102637	  0.056976	
2.56234	  0.097773	  0.104439	  0.056976	
2.62483	  0.094565	  0.106375	  0.055864	
2.68733	  0.090967	  0.107426	  0.055054	
2.74982	  0.089465	  0.107868	  0.055116	
2.81232	  0.090571	  0.107197	  0.056488	
2.87482	  0.091939	  0.106244	  0.058869	
2.93731	  0.093845	  0.107103	  0.062052	
2.99981	  0.096460	  0.107491	  0.063836	
3.0623	  0.098558	  0.105383	  0.062776	
3.1248	  0.098935	  0.100353	  0.059512	
3.1873	  0.098081	  0.094050	  0.055629	
3.24979	  0.096401	  0.090258	  0.053547	
3.31229	  0.094292	  0.091276	  0.053107	
3.37478	  0.091936	  0.096491	  0.053044	
3.43728	  0.089604	  0.103266	  0.054691	
3.49978	  0.087878	  0.108625	  0.058392	
3.56227	  0.087171	  0.111953	  0.061723	
3.62477	  0.087792	  0.115226	  0.064336	
3.68726	  0.088658	  0.118793	  0.066522	
3.74976	  0.090167	  0.120852	  0.068238	
3.81226	  0.093312	  0.121453	  0.069066	
3.87475	  0.096951	  0.120344	  0.070641	
3.93725	  0.098524	  0.119228	  0.073231	
3.99974	  0.097111	  0.120908	  0.082209	
4.06224	  0.095735	  0.125953	  0.103586	
4.12474	  0.097151	  0.131952	  0.137958	
4.18723	  0.105587	  0.137757	  0.174485	
4.24973	  0.128758	  0.142970	  0.205412	
4.31222	  0.169623	  0.146637	  0.231819	
4.37472	  0.217145	  0.147654	  0.260648	
4.43722	  0.247857	  0.146159	  0.304049	
4.49971	  0.259833	  0.144253	  0.371761	
4.56221	  0.269037	  0.150206	  0.458128	
4.6247	  0.288169	  0.164004	  0.546160	
4.6872	  0.315463	  0.179622	  0.627034	
4.7497	  0.349767	  0.190089	  0.705500	
4.81219	  0.387731	  0.193454	  0.789896	
4.87469	  0.429221	  0.191390	  0.865947	
4.93718	  0.474220	  0.187944	  0.899291	
4.99968	  0.509883	  0.187760	  0.875504	
5.06218	  0.529685	  0.193249	  0.814983	
5.12467	  0.551465	  0.205158	  0.762876	
5.18717	  0.569648	  0.224634	  0.752187	
5.24966	  0.563665	  0.243442	  0.779994	
5.31216	  0.559862	  0.252741	  0.818583	
5.37466	  0.550216	  0.254723	  0.829975	
5.43715	  0.550497	  0.255429	  0.823847	
5.49965	  0.573465	  0.260169	  0.830861	
5.56214	  0.606427	  0.260606	  0.844465	
5.62464	  0.606095	  0.259236	  0.838589	
5.68714	  0.587523	  0.263658	  0.812239	
5.74963	  0.578189	  0.277592	  0.784956	
5.81213	  0.587880	  0.298486	  0.776086	
5.87462	  0.595749	  0.324118	  0.782822	
5.93712	  0.613200	  0.348310	  0.792558	
5.99962	  0.628150	  0.377067	  0.788395	
6.06211	  0.637070	  0.408915	  0.775523	
6.12461	  0.653798	  0.421927	  0.737447	
6.1871	  0.669597	  0.419542	  0.697508	
6.2496	  0.685912	  0.425702	  0.677707	
6.3121	  0.696819	  0.445184	  0.690666	
6.37459	  0.722430	  0.467559	  0.736845	
6.43709	  0.769872	  0.482083	  0.797447	
6.49958	  0.832822	  0.479746	  0.830682	
6.56208	  0.880360	  0.460315	  0.846519	
6.62458	  0.905429	  0.435250	  0.873039	
6.68707	  0.916639	  0.402753	  0.889973	
6.74957	  0.922926	  0.383550	  0.892507	
6.81206	  0.899807	  0.389630	  0.878291	
6.87456	  0.851356	  0.422155	  0.835321	
6.93706	  0.826306	  0.488401	  0.786999	
6.99955	  0.839056	  0.573877	  0.767573	
7.06205	  0.864425	  0.644151	  0.780548	
7.12454	  0.885992	  0.675035	  0.805676	
7.18704	  0.870405	  0.658212	  0.833232	
7.24954	  0.823887	  0.630393	  0.845424	
7.31203	  0.762309	  0.626189	  0.808644	
7.37453	  0.719416	  0.638311	  0.730491	
7.43702	  0.729377	  0.672114	  0.674996	
7.49952	  0.795700	  0.708823	  0.676132	
7.56202	  0.891930	  0.727308	  0.736610	
7.62451	  0.972795	  0.745547	  0.827225	
7.68701	  0.999191	  0.769337	  0.885807	
7.7495	  0.957140	  0.785925	  0.882952	
7.812	  0.904177	  0.811921	  0.855602	
7.8745	  0.845387	  0.864220	  0.838344	
7.93699	  0.826186	  0.940363	  0.809399	
7.99949	  0.832371	  0.977247	  0.775068	
8.06198	  0.840032	  0.950678	  0.735715	
8.12448	  0.823282	  0.897377	  0.708633	
8.18698	  0.801206	  0.847119	  0.689143	
8.24947	  0.806752	  0.819666	  0.661540	
8.31197	  0.816281	  0.829633	  0.639877	
8.37446	  0.804526	  0.861167	  0.629994	
8.43696	  0.762348	  0.902250	  0.637376	
8.49946	  0.715970	  0.936005	  0.660169	
8.56195	  0.684990	  0.973448	  0.699283	
8.62445	  0.673372	  0.999404	  0.731498	
8.68694	  0.649539	  0.990642	  0.737785	
8.74944	  0.630920	  0.953366	  0.710556	
8.81194	  0.618969	  0.895736	  0.682460	
8.87443	  0.593766	  0.863225	  0.674107	
8.93693	  0.551403	  0.877525	  0.674625	
8.99942	  0.501692	  0.916153	  0.680427	
9.06192	  0.462001	  0.940085	  0.693621	
9.12442	  0.448958	  0.926901	  0.699672	
9.18691	  0.471036	  0.910522	  0.692408	
9.24941	  0.504879	  0.894537	  0.671499	
9.3119	  0.522730	  0.883670	  0.632142	
9.3744	  0.534710	  0.862658	  0.576784	
9.4369	  0.534283	  0.797190	  0.519021	
9.49939	  0.507842	  0.684206	  0.462498	
9.56189	  0.452305	  0.546943	  0.403645	
9.62438	  0.390898	  0.429289	  0.356379	
9.68688	  0.340401	  0.357146	  0.322153	
9.74938	  0.299286	  0.315755	  0.302261	
9.81187	  0.268192	  0.271265	  0.288889	
9.87437	  0.251275	  0.231782	  0.268800	
9.93686	  0.239728	  0.204385	  0.244752	
9.99936	  0.227523	  0.177693	  0.230719	
10.0619	  0.219448	  0.159152	  0.225541	
10.1244	  0.215546	  0.153819	  0.213946	
10.1868	  0.222813	  0.151485	  0.198320	
10.2493	  0.233058	  0.142861	  0.193939	
10.3118	  0.234937	  0.135149	  0.197780	
10.3743	  0.235985	  0.132562	  0.202035	
10.4368	  0.243968	  0.131142	  0.205866	
10.4993	  0.252099	  0.128096	  0.211956	
10.5618	  0.251819	  0.122143	  0.218880	
10.6243	  0.245148	  0.117348	  0.215967	
10.6868	  0.232709	  0.116279	  0.201332	
10.7493	  0.209778	  0.117364	  0.191627	
10.8118	  0.188434	  0.119484	  0.190574	
10.8743	  0.174937	  0.124364	  0.196480	
10.9368	  0.162976	  0.128921	  0.207328	
10.9993	  0.158797	  0.130727	  0.223176	
11.0618	  0.162695	  0.129086	  0.237007	
11.1243	  0.165811	  0.122350	  0.239765	
11.1868	  0.170708	  0.113498	  0.232322	
11.2493	  0.177447	  0.108751	  0.221819	
11.3118	  0.179396	  0.109405	  0.207523	
11.3743	  0.176930	  0.113662	  0.192779	
11.4368	  0.176163	  0.121998	  0.181208	
11.4993	  0.178376	  0.128329	  0.175707	
11.5618	  0.184859	  0.126939	  0.172657	
